<svg width="433.2912353515625px" height="122.021240234375px" xmlns="http://www.w3.org/2000/svg" viewBox="33.35438232421876 13.9893798828125 433.2912353515625 122.021240234375" style="background: rgba(29, 63, 114, 0);" preserveAspectRatio="xMidYMid"><defs><filter id="editing-extrude-glow"><feFlood flood-color="#d8ebf9" result="flood-1"></feFlood><feMorphology operator="erode" radius="1" in="SourceAlpha" result="erode"></feMorphology><feComposite operator="in" in="flood-1" in2="erode" result="comp1"></feComposite><feConvolveMatrix order="3,3" divisor="1" in="comp1" result="convolve" kernelMatrix="0 0 0 1 1 1 0 0 0"></feConvolveMatrix><feOffset dx="-3" dy="0" in="convolve" result="extrude"></feOffset><feComposite operator="in" in="flood-1" in2="extrude" result="comp-extrude"></feComposite><feFlood flood-color="#71c2cc" result="flood-2"></feFlood><feComposite operator="in" in="flood-2" in2="SourceAlpha" result="comp2"></feComposite><feMorphology operator="dilate" radius="1" in="comp2" result="dilate"></feMorphology><feOffset dx="-4.5" dy="0" in="dilate" result="offset"></feOffset><feGaussianBlur in="offset" stdDeviation="5.8" result="blur"></feGaussianBlur><feComponentTransfer in="blur" result="shadow"><feFuncA type="linear" slope="0.8" intercept="-0.2"></feFuncA></feComponentTransfer><feMerge><feMergeNode in="shadow"></feMergeNode><feMergeNode in="comp-extrude"></feMergeNode><feMergeNode in="SourceGraphic"></feMergeNode></feMerge></filter></defs><g filter="url(#editing-extrude-glow)"><g transform="translate(97.40469598770142, 99.02218818664551)"><path d="M2.69-39.68L2.69-39.68L2.69-39.68Q4.54-43.52 9.70-43.52L9.70-43.52L9.70-43.52Q14.85-43.52 17.25-40.54L17.25-40.54L17.25-40.54Q19.65-37.57 19.65-30.72L19.65-30.72L19.65-7.87L35.20-42.18L42.82-42.18L22.91 0L7.94 0L6.02-30.72L6.02-30.72Q5.82-34.11 4.90-36.42L4.90-36.42L4.90-36.42Q3.97-38.72 2.69-39.68ZM65.15-10.82L65.15-10.82L65.15-10.82Q66.75-9.73 66.75-7.33L66.75-7.33L66.75-7.33Q66.75-4.93 65.54-3.39L65.54-3.39L65.54-3.39Q64.32-1.86 62.34-0.83L62.34-0.83L62.34-0.83Q58.24 1.28 53.82 1.28L53.82 1.28L53.82 1.28Q49.41 1.28 46.82 0.32L46.82 0.32L46.82 0.32Q44.22-0.64 42.50-2.43L42.50-2.43L42.50-2.43Q39.10-5.82 39.10-12.03L39.10-12.03L39.10-12.03Q39.10-21.70 44.35-27.58L44.35-27.58L44.35-27.58Q49.98-33.92 59.78-33.92L59.78-33.92L59.78-33.92Q65.86-33.92 68.86-31.36L68.86-31.36L68.86-31.36Q71.10-29.44 71.10-26.30L71.10-26.30L71.10-26.30Q71.10-15.04 51.65-15.04L51.65-15.04L51.65-15.04Q51.39-13.38 51.39-11.97L51.39-11.97L51.39-11.97Q51.39-9.02 52.70-7.90L52.70-7.90L52.70-7.90Q54.02-6.78 56.45-6.78L56.45-6.78L56.45-6.78Q58.88-6.78 61.47-7.90L61.47-7.90L61.47-7.90Q64.06-9.02 65.15-10.82ZM52.10-17.79L52.10-17.79L52.10-17.79Q56.64-17.79 59.26-20.61L59.26-20.61L59.26-20.61Q61.89-23.30 61.89-27.58L61.89-27.58L61.89-27.58Q61.89-29.06 61.34-29.86L61.34-29.86L61.34-29.86Q60.80-30.66 59.71-30.66L59.71-30.66L59.71-30.66Q58.62-30.66 57.70-30.24L57.70-30.24L57.70-30.24Q56.77-29.82 55.81-28.42L55.81-28.42L55.81-28.42Q53.44-25.22 52.10-17.79ZM99.20-10.82L99.20-10.82L99.20-10.82Q100.80-9.73 100.80-7.33L100.80-7.33L100.80-7.33Q100.80-4.93 99.58-3.39L99.58-3.39L99.58-3.39Q98.37-1.86 96.38-0.83L96.38-0.83L96.38-0.83Q92.29 1.28 87.87 1.28L87.87 1.28L87.87 1.28Q83.46 1.28 80.86 0.32L80.86 0.32L80.86 0.32Q78.27-0.64 76.54-2.43L76.54-2.43L76.54-2.43Q73.15-5.82 73.15-12.03L73.15-12.03L73.15-12.03Q73.15-21.70 78.40-27.58L78.40-27.58L78.40-27.58Q84.03-33.92 93.82-33.92L93.82-33.92L93.82-33.92Q99.90-33.92 102.91-31.36L102.91-31.36L102.91-31.36Q105.15-29.44 105.15-26.30L105.15-26.30L105.15-26.30Q105.15-15.04 85.70-15.04L85.70-15.04L85.70-15.04Q85.44-13.38 85.44-11.97L85.44-11.97L85.44-11.97Q85.44-9.02 86.75-7.90L86.75-7.90L86.75-7.90Q88.06-6.78 90.50-6.78L90.50-6.78L90.50-6.78Q92.93-6.78 95.52-7.90L95.52-7.90L95.52-7.90Q98.11-9.02 99.20-10.82ZM86.14-17.79L86.14-17.79L86.14-17.79Q90.69-17.79 93.31-20.61L93.31-20.61L93.31-20.61Q95.94-23.30 95.94-27.58L95.94-27.58L95.94-27.58Q95.94-29.06 95.39-29.86L95.39-29.86L95.39-29.86Q94.85-30.66 93.76-30.66L93.76-30.66L93.76-30.66Q92.67-30.66 91.74-30.24L91.74-30.24L91.74-30.24Q90.82-29.82 89.86-28.42L89.86-28.42L89.86-28.42Q87.49-25.22 86.14-17.79ZM106.50-3.07L106.50-3.07L114.43-44.80L127.42-46.08L125.44-36.29L125.44-36.29Q124.74-33.28 123.84-31.17L123.84-31.17L123.84-31.17Q125.25-32.96 128.32-33.66L128.32-33.66L128.32-33.66Q129.22-33.92 130.30-33.92L130.30-33.92L130.30-33.92Q136.26-33.92 139.52-30.30L139.52-30.30L139.52-30.30Q142.78-26.69 142.78-19.71L142.78-19.71L142.78-19.71Q142.78-10.62 137.60-4.93L137.60-4.93L137.60-4.93Q132.03 1.28 121.92 1.28L121.92 1.28L121.92 1.28Q114.94 1.28 109.70-1.02L109.70-1.02L109.70-1.02Q107.84-1.86 106.50-3.07ZM122.75-22.40L119.36-3.65L119.36-3.65Q120.70-2.50 122.37-2.50L122.37-2.50L122.37-2.50Q124.03-2.50 124.99-3.14L124.99-3.14L124.99-3.14Q125.95-3.78 126.66-5.06L126.66-5.06L126.66-5.06Q128.58-8.51 130.11-19.07L130.11-19.07L130.11-19.07Q130.56-22.08 130.56-25.09L130.56-25.09L130.56-25.09Q130.56-28.10 129.89-29.06L129.89-29.06L129.89-29.06Q129.22-30.02 127.94-30.02L127.94-30.02L127.94-30.02Q124.03-30.02 122.75-22.40L122.75-22.40ZM161.98-3.52L161.98-3.52L161.98-3.52Q160 1.28 153.66 1.28L153.66 1.28L153.66 1.28Q150.40 1.28 148.35-0.96L148.35-0.96L148.35-0.96Q146.62-2.94 146.62-4.93L146.62-4.93L146.62-4.93Q146.62-10.11 148.99-20.22L148.99-20.22L151.36-32.64L164.35-33.92L160.45-13.70L160.45-13.70Q159.36-8.96 159.36-7.30L159.36-7.30L159.36-7.30Q159.36-3.65 161.98-3.52ZM152.51-41.54L152.51-41.54L152.51-41.54Q152.51-44.03 154.59-45.38L154.59-45.38L154.59-45.38Q156.67-46.72 159.68-46.72L159.68-46.72L159.68-46.72Q162.69-46.72 164.51-45.38L164.51-45.38L164.51-45.38Q166.34-44.03 166.34-41.54L166.34-41.54L166.34-41.54Q166.34-39.04 164.32-37.76L164.32-37.76L164.32-37.76Q162.30-36.48 159.30-36.48L159.30-36.48L159.30-36.48Q156.29-36.48 154.40-37.76L154.40-37.76L154.40-37.76Q152.51-39.04 152.51-41.54ZM182.72-3.52L182.72-3.52L182.72-3.52Q180.74 1.28 174.40 1.28L174.40 1.28L174.40 1.28Q171.20 1.28 169.15-0.96L169.15-0.96L169.15-0.96Q167.49-2.82 167.49-4.93L167.49-4.93L167.49-4.93Q167.49-9.73 169.73-20.22L169.73-20.22L174.40-44.80L187.39-46.08L181.18-13.70L181.18-13.70Q180.10-8.96 180.10-7.30L180.10-7.30L180.10-7.30Q180.10-3.65 182.72-3.52ZM214.08-10.82L214.08-10.82L214.08-10.82Q215.68-9.73 215.68-7.33L215.68-7.33L215.68-7.33Q215.68-4.93 214.46-3.39L214.46-3.39L214.46-3.39Q213.25-1.86 211.26-0.83L211.26-0.83L211.26-0.83Q207.17 1.28 202.75 1.28L202.75 1.28L202.75 1.28Q198.34 1.28 195.74 0.32L195.74 0.32L195.74 0.32Q193.15-0.64 191.42-2.43L191.42-2.43L191.42-2.43Q188.03-5.82 188.03-12.03L188.03-12.03L188.03-12.03Q188.03-21.70 193.28-27.58L193.28-27.58L193.28-27.58Q198.91-33.92 208.70-33.92L208.70-33.92L208.70-33.92Q214.78-33.92 217.79-31.36L217.79-31.36L217.79-31.36Q220.03-29.44 220.03-26.30L220.03-26.30L220.03-26.30Q220.03-15.04 200.58-15.04L200.58-15.04L200.58-15.04Q200.32-13.38 200.32-11.97L200.32-11.97L200.32-11.97Q200.32-9.02 201.63-7.90L201.63-7.90L201.63-7.90Q202.94-6.78 205.38-6.78L205.38-6.78L205.38-6.78Q207.81-6.78 210.40-7.90L210.40-7.90L210.40-7.90Q212.99-9.02 214.08-10.82ZM201.02-17.79L201.02-17.79L201.02-17.79Q205.57-17.79 208.19-20.61L208.19-20.61L208.19-20.61Q210.82-23.30 210.82-27.58L210.82-27.58L210.82-27.58Q210.82-29.06 210.27-29.86L210.27-29.86L210.27-29.86Q209.73-30.66 208.64-30.66L208.64-30.66L208.64-30.66Q207.55-30.66 206.62-30.24L206.62-30.24L206.62-30.24Q205.70-29.82 204.74-28.42L204.74-28.42L204.74-28.42Q202.37-25.22 201.02-17.79ZM254.40-7.10L254.40-7.10L254.40-7.10Q254.40-4.29 257.28-3.46L257.28-3.46L257.28-3.46Q256.58-1.09 253.82 0.19L253.82 0.19L253.82 0.19Q251.52 1.28 248.99 1.28L248.99 1.28L248.99 1.28Q246.46 1.28 245.15 0.61L245.15 0.61L245.15 0.61Q243.84-0.06 243.14-1.15L243.14-1.15L243.14-1.15Q241.98-2.82 241.98-5.95L241.98-5.95L241.98-5.95Q241.98-7.81 243.01-12.93L243.01-12.93L243.90-17.79L243.90-17.79Q244.99-23.36 244.99-25.41L244.99-25.41L244.99-25.41Q244.99-28.99 243.01-28.99L243.01-28.99L243.01-28.99Q240.51-28.99 238.91-25.34L238.91-25.34L238.91-25.34Q238.27-23.94 237.82-21.82L237.82-21.82L233.47 0L220.61 1.28L229.63-44.80L242.50-46.08L241.98-43.52L241.98-43.52Q240.19-33.66 238.66-30.34L238.66-30.34L238.66-30.34Q242.24-33.92 248.83-33.92L248.83-33.92L248.83-33.92Q255.81-33.92 257.09-29.31L257.09-29.31L257.09-29.31Q257.54-27.84 257.54-26.56L257.54-26.56L257.54-26.56Q257.54-25.28 257.44-24.29L257.44-24.29L257.44-24.29Q257.34-23.30 257.02-21.50L257.02-21.50L256.19-16.90L254.72-9.66L254.72-9.66Q254.40-8.19 254.40-7.10ZM263.49-6.40L263.49-6.40L263.49-6.40Q263.49-8.13 264.38-12.48L264.38-12.48L267.78-29.76L264-29.76L264.26-31.68L264.26-31.68Q271.94-33.98 279.36-39.62L279.36-39.62L282.43-39.62L280.90-32.64L285.89-32.64L285.31-29.76L280.38-29.76L277.12-12.48L277.12-12.48Q276.29-8.51 276.29-7.17L276.29-7.17L276.29-7.17Q276.29-4.10 278.98-3.46L278.98-3.46L278.98-3.46Q278.34-1.28 276.03 0L276.03 0L276.03 0Q273.73 1.28 270.46 1.28L270.46 1.28L270.46 1.28Q267.20 1.28 265.34-0.77L265.34-0.77L265.34-0.77Q263.49-2.82 263.49-6.40ZM283.84-3.78L283.84-3.78L283.84-3.78Q283.84-6.21 285.66-7.52L285.66-7.52L285.66-7.52Q287.49-8.83 290.18-8.83L290.18-8.83L290.18-8.83Q292.86-8.83 294.56-7.52L294.56-7.52L294.56-7.52Q296.26-6.21 296.26-3.78L296.26-3.78L296.26-3.78Q296.26-1.34 294.37 0L294.37 0L294.37 0Q292.48 1.34 289.79 1.34L289.79 1.34L289.79 1.34Q287.10 1.34 285.47 0L285.47 0L285.47 0Q283.84-1.34 283.84-3.78ZM287.30-15.81L287.30-15.81L287.30-15.81Q287.30-16.26 287.42-16.90L287.42-16.90L292.42-42.62L292.42-42.62Q294.78-43.52 297.60-43.52L297.60-43.52L297.60-43.52Q300.42-43.52 301.89-41.73L301.89-41.73L301.89-41.73Q303.36-39.94 303.36-37.28L303.36-37.28L303.36-37.28Q303.36-34.62 302.34-31.65L302.34-31.65L302.34-31.65Q301.31-28.67 300.06-25.66L300.06-25.66L300.06-25.66Q298.82-22.66 297.76-19.55L297.76-19.55L297.76-19.55Q296.70-16.45 296.64-13.18L296.64-13.18L296.64-13.18Q295.17-11.52 292.61-11.52L292.61-11.52L292.61-11.52Q290.05-11.52 288.67-12.70L288.67-12.70L288.67-12.70Q287.30-13.89 287.30-15.81Z" fill="#5699d2"></path></g></g><style>text {
  font-size: 64px;
  font-family: Arial Black;
  dominant-baseline: central;
  text-anchor: middle;
}</style></svg>